<svg version="1.1" id="Layer_1" xmlns="http://www.w3.org/2000/svg" xmlns:xlink="http://www.w3.org/1999/xlink" x="0px" y="0px" viewBox="0 0 512 512" style="enable-background:new 0 0 512 512;" xml:space="preserve">
<style type="text/css">
	.st0{fill:#ECEEF1;}
	.st1{fill:#083344;}
	.st2{fill:#F6A316;}
	.st3{fill:#083344;stroke:#083344;stroke-width:15;stroke-linecap:round;stroke-linejoin:round;stroke-miterlimit:10;}
	.st4{fill:#ECEEF1;stroke:#083344;stroke-width:15;stroke-linecap:round;stroke-linejoin:round;stroke-miterlimit:10;}
</style>
<path class="st2" d="M408.09,462H103.91C74.14,462,50,437.86,50,408.09V103.91C50,74.14,74.14,50,103.91,50h304.17
	C437.86,50,462,74.14,462,103.91v304.17C462,437.86,437.86,462,408.09,462z" id="id_107" style="fill: rgb(255, 255, 255);"></path>
<path class="st3" d="M375.19,216.31c0.18-0.89,0.24-1.91,0.24-2.86c0-8.88-7.21-16.09-16.09-16.09c-8.88,0-16.09,7.21-16.09,16.09
	c0,0.95,0.06,1.97,0.24,2.86h-37.61V178.7c-0.89,0.18-1.91,0.24-2.86,0.24c-8.88,0-16.09-7.21-16.09-16.09s7.21-16.09,16.09-16.09
	c0.95,0,1.97,0.06,2.86,0.24v-37.61c59.07,0,106.93,47.86,106.93,106.93H375.19z" id="id_108" style="fill: rgb(163, 0, 68); stroke: rgb(255, 13, 182);"></path>
<path class="st4" d="M277.7,309.47c0,8.94-7.15,16.09-16.09,16.09c-1.97,0-3.87-0.36-5.6-1.01v38.39
	c-59.07,0-106.93-47.86-106.93-106.93h39.76c-1.55,2.44-2.38,5.36-2.38,8.4c0,8.94,7.15,16.09,16.09,16.09
	c8.88,0,16.09-7.15,16.09-16.09c0-3.04-0.83-5.96-2.38-8.4H256v38.39c1.73-0.66,3.64-1.01,5.6-1.01
	C270.54,293.37,277.7,300.59,277.7,309.47z" id="id_109" style="stroke: rgb(255, 5, 180); fill: rgb(163, 3, 70);"></path>
<path class="st4" d="M234.18,202.53c0,8.88,7.22,16.1,16.1,16.1c2.02,0,3.99-0.36,5.72-1.08V256h-39.76
	c1.55,2.44,2.39,5.36,2.39,8.4c0,8.95-7.22,16.1-16.1,16.1c-8.94,0-16.09-7.15-16.09-16.1c0-3.04,0.83-5.96,2.38-8.4h-39.75
	c0-59.07,47.86-106.93,106.93-106.93v38.44c-1.73-0.71-3.7-1.07-5.72-1.07C241.4,186.44,234.18,193.65,234.18,202.53z" id="id_110" style="stroke: rgb(252, 5, 178); fill: rgb(166, 2, 70);"></path>
<path class="st4" d="M149.07,256h39.75c-1.55,2.44-2.38,5.36-2.38,8.4c0,8.95,7.15,16.1,16.09,16.1c8.88,0,16.1-7.15,16.1-16.1
	c0-3.04-0.84-5.96-2.39-8.4H256" id="id_111" style="stroke: rgb(255, 5, 180); fill: rgb(163, 3, 70);"></path>
<path class="st4" d="M362.93,256c0,59.07-47.86,106.93-106.93,106.93v-38.39c1.73,0.66,3.64,1.01,5.6,1.01
	c8.94,0,16.09-7.15,16.09-16.09c0-8.88-7.15-16.09-16.09-16.09c-1.97,0-3.87,0.36-5.6,1.01V256H362.93z" id="id_112" style="stroke: rgb(250, 8, 177); fill: rgb(166, 3, 71);"></path>
</svg>