<?xml version="1.0" encoding="utf-8"?>
<!-- Generator: Adobe Illustrator 23.0.0, SVG Export Plug-In . SVG Version: 6.00 Build 0)  -->
<svg version="1.1" id="Layer_1" xmlns="http://www.w3.org/2000/svg" xmlns:xlink="http://www.w3.org/1999/xlink" x="0px" y="0px"
	 viewBox="0 0 64 64" style="enable-background:new 0 0 64 64;" xml:space="preserve">
<style type="text/css">
	.st0{fill:#231F20;}
</style>
<g>
	<path d="M52.11,20.14H42.04c-0.28-2.6-2.49-4.63-5.16-4.63h-9.76c-2.67,0-4.88,2.03-5.16,4.63H11.89c-2.29,0-4.15,1.86-4.15,4.15
		v20.04c0,2.29,1.86,4.15,4.15,4.15h40.21c2.29,0,4.15-1.86,4.15-4.15V24.29C56.26,22,54.4,20.14,52.11,20.14z M54.66,44.33
		c0,1.41-1.15,2.55-2.55,2.55H11.89c-1.41,0-2.55-1.15-2.55-2.55V24.29c0-1.41,1.15-2.55,2.55-2.55h10.83c0.44,0,0.8-0.36,0.8-0.8
		V20.7c0-1.98,1.61-3.59,3.59-3.59h9.76c1.98,0,3.59,1.61,3.59,3.59v0.23c0,0.44,0.36,0.8,0.8,0.8h10.83c1.41,0,2.55,1.15,2.55,2.55
		V44.33z"/>
	<path d="M32,24.08c-5.64,0-10.23,4.59-10.23,10.23S26.36,44.54,32,44.54c5.64,0,10.23-4.59,10.23-10.23S37.64,24.08,32,24.08z
		 M32,42.94c-4.76,0-8.63-3.87-8.63-8.63s3.87-8.63,8.63-8.63s8.63,3.87,8.63,8.63S36.76,42.94,32,42.94z"/>
</g>
</svg>
